<svg xmlns="http://www.w3.org/2000/svg" viewBox="0 0 800 360">
<defs><linearGradient id="b" x1="0" y1="0" x2="0" y2="1"><stop stop-color="#102f46"/><stop offset="1" stop-color="#020a12"/></linearGradient><radialGradient id="g"><stop stop-color="#39d6b0" stop-opacity=".35"/><stop offset="1" stop-color="#39d6b0" stop-opacity="0"/></radialGradient></defs>
<rect width="800" height="360" fill="url(#b)"/><ellipse cx="400" cy="150" rx="240" ry="210" fill="url(#g)"/><path d="M0 314 Q170 272 360 315 T800 300 V360 H0Z" fill="#030b0f"/><g transform="translate(325 212)"><rect width="150" height="82" rx="5" fill="#4c3a29" stroke="#8d734e" stroke-width="7"/><path d="M0 31h150M75 0v82" stroke="#17130f" stroke-width="7"/><rect x="59" y="24" width="32" height="32" rx="4" fill="#d5b95f"/><path d="M67 40h16" stroke="#4f421e" stroke-width="5"/></g><g fill="#7bf7d8" opacity=".72"><circle cx="248" cy="160" r="4"/><circle cx="235" cy="133" r="3"/><circle cx="225" cy="110" r="2"/><circle cx="555" cy="120" r="4"/><circle cx="568" cy="93" r="3"/></g><path d="M105 318q28-120 50 0M680 320q24-105 48 0" fill="#08211f"/></svg>