<svg xmlns="http://www.w3.org/2000/svg" viewBox="0 0 800 360">
<defs><linearGradient id="b" x1="0" y1="0" x2="0" y2="1"><stop stop-color="#15556a"/><stop offset="1" stop-color="#061b24"/></linearGradient><linearGradient id="r"><stop stop-color="#4f6b69"/><stop offset="1" stop-color="#192c2f"/></linearGradient></defs>
<rect width="800" height="360" fill="url(#b)"/><path d="M0 300 Q180 260 350 300 T800 290 V360 H0Z" fill="#081a1c"/><g transform="translate(150 155) rotate(-8 260 80)"><path d="M0 120 L100 170 H470 L550 105 H180Z" fill="url(#r)" stroke="#68817c" stroke-width="6"/><rect x="190" y="35" width="170" height="90" rx="4" fill="#263b3e" stroke="#657b78" stroke-width="5"/><path d="M245 35V0M300 35V5M350 35V15" stroke="#718985" stroke-width="7"/><circle cx="230" cy="80" r="20" fill="#0b252c"/><circle cx="320" cy="80" r="20" fill="#0b252c"/></g><g transform="translate(560 255)"><rect width="110" height="56" rx="4" fill="#755134" stroke="#bb8d58" stroke-width="6"/><path d="M0 22h110" stroke="#302119" stroke-width="6"/></g><g fill="#b8fff2" opacity=".65"><circle cx="110" cy="90" r="5"/><circle cx="122" cy="64" r="3"/><circle cx="130" cy="42" r="2"/></g></svg>