<svg xmlns="http://www.w3.org/2000/svg" viewBox="0 0 800 360">
<defs><linearGradient id="b" x1="0" y1="0" x2="0" y2="1"><stop stop-color="#1c7790"/><stop offset="1" stop-color="#092733"/></linearGradient><radialGradient id="l"><stop stop-color="#73e8cf" stop-opacity=".55"/><stop offset="1" stop-color="#73e8cf" stop-opacity="0"/></radialGradient></defs>
<rect width="800" height="360" fill="url(#b)"/><ellipse cx="180" cy="70" rx="250" ry="180" fill="url(#l)"/><path d="M0 286 Q150 250 310 286 T800 276 V360 H0Z" fill="#0c2527"/><g fill="#133a38"><path d="M80 310q30-100 52 0zM680 325q35-125 62 0zM620 330q18-86 38 0z"/></g><g transform="translate(325 218)"><rect width="150" height="78" rx="5" fill="#6c4d2f" stroke="#b58a52" stroke-width="7"/><path d="M0 31h150M75 0v78" stroke="#2c2017" stroke-width="7"/><rect x="61" y="26" width="28" height="28" rx="4" fill="#d2ad59"/></g><g fill="#b8fff2" opacity=".7"><circle cx="550" cy="105" r="5"/><circle cx="565" cy="82" r="3"/><circle cx="575" cy="57" r="2"/></g></svg>